<?xml version="1.0" standalone="no"?>
<!DOCTYPE svg PUBLIC "-//W3C//DTD SVG 20010904//EN" "http://www.w3.org/TR/2001/REC-SVG-20010904/DTD/svg10.dtd">
<svg version="1.0" xmlns="http://www.w3.org/2000/svg" width="512.000000pt" height="512.000000pt" viewBox="0 0 512.000000 512.000000" preserveAspectRatio="xMidYMid meet">
<g transform="translate(0.000000,512.000000) scale(0.100000,-0.100000)" fill="#000000" stroke="none">
<path d="M0 2560 l0 -2560 2560 0 2560 0 0 2560 0 2560 -2560 0 -2560 0 0 -2560z m1586 -1147 c63 -34 105 -73 125 -118 38 -82 101 -75 -641 -75 l-660 0
6 28 c11 45 41 96 75 130 61 60 75 61 589 59 458 -2 466 -2 506 -24z m2940 0 c83 -45 144 -117 144 -173 0 -20 -2 -20 -660 -20 l-660 0 6 28 c14 54 35 92
69 126 64 64 76 65 595 63 458 -2 466 -2 506 -24z m-2343 -83 c31 -55 57 -102 57 -105 0 -3 -81 -5 -179 -5 l-180 0 -57 98 c-31 53 -59 100 -61 105 -2 4 78
7 179 7 l184 0 57 -100z m1156 93 c0 -5 -26 -51 -58 -103 l-57 -95 -182 -3 c-100 -1 -182 0 -182 2 0 4 79 140 106 184 14 21 19 22 194 22 99 0 180 -3
179 -7z m-1719 -389 c96 -44 140 -133 140 -280 0 -150 -45 -244 -141 -296 -44 -23 -44 -23 -490 -26 -480 -3 -550 2 -625 49 -43 26 -83 84 -91 132 l-6 36
496 3 c567 3 532 -2 532 89 0 82 17 79 -420 79 -424 0 -454 4 -522 63 -37 33 -65 85 -78 145 l-7 33 584 -3 c567 -3 584 -4 628 -24z m821 -144 c53 -91 103
-166 111 -168 8 -2 50 60 113 168 l99 170 179 0 c159 0 178 -2 173 -16 -3 -8 -85 -148 -183 -310 l-176 -294 -206 2 -205 3 -169 280 c-92 154 -175 292 -183
308 l-15 27 183 -2 182 -3 97 -165z m2087 155 c98 -29 153 -100 172 -219 11 -70 7 -117 -18 -210 -12 -46 -27 -71 -61 -107 -78 -80 -84 -81 -613 -77 -399 3
-459 6 -506 21 -84 28 -136 85 -156 170 l-6 27 495 0 496 0 26 26 c22 22 25 32 20 72 -3 28 -12 51 -23 59 -14 10 -99 13 -390 13 -228 0 -393 4 -423 11 -71
15 -127 59 -157 122 -13 29 -24 64 -24 80 l0 27 558 0 c474 0 566 -2 610 -15z"/></g></svg>
